<svg version="1.1" xmlns="http://www.w3.org/2000/svg" xmlns:xlink="http://www.w3.org/1999/xlink" width="34.13347" height="70.7096" viewBox="0,0,34.13347,70.7096"><g transform="translate(-218.30332,-131.505)"><g data-paper-data="{&quot;isPaintingLayer&quot;:true}" fill-rule="nonzero" stroke-linejoin="miter" stroke-miterlimit="10" stroke-dasharray="" stroke-dashoffset="0" style="mix-blend-mode: normal"><g><g><path d="M224.5407,182.40919c0,-3.01629 -1.14412,-8.00918 -0.59289,-11.44467c0.10294,-0.64155 5.29666,-0.98154 5.20338,-1.58659c-0.10632,-0.68963 -5.36769,-1.07223 -5.43074,-1.71387c-0.2289,-2.32935 -0.1102,-4.28582 0.80968,-5.45808c1.45364,-1.85247 8.6423,0.80843 10.49813,0.80843c2.16856,0 8.18709,-3.70495 9.77214,-1.24372c0.78285,1.21559 0.66158,4.19986 0.55237,6.69586c-0.03737,0.85402 -6.4836,2.42611 -5.6269,2.58956c1.19455,0.22791 4.96607,-0.17931 5.63958,0.42574c2.55871,2.29861 1.96602,9.40048 2.449,11.78934c0.81626,4.03727 2.01214,11.30135 4.09143,14.64409c2.61537,4.20457 -13.8133,2.16473 -16.87762,2.16473c-2.45284,0 -13.62082,3.87435 -12.67243,0.5129c1.03596,-3.67182 2.18488,-12.81628 2.18488,-18.18371z" fill="#4700d6" stroke="#4700d6" stroke-width="0.5" stroke-linecap="butt"/><path d="M244.36649,173.93297c0,15.07537 -4.05222,27.29636 -9.0509,27.29636c-4.99867,0 -9.0509,-12.22099 -9.0509,-27.29636c0,-1.4896 4.91852,-5.07707 4.29149,-6.9887c-0.96378,-2.93828 -7.59066,-4.26631 -7.31174,-6.24915c1.37611,-9.78275 8.32557,-14.0585 12.07115,-14.0585c3.96737,0 9.92451,4.5378 11.14668,15.25164c0.1661,1.45605 -6.73559,2.9697 -7.32735,5.34987c-0.54012,2.17245 5.23157,5.21067 5.23157,6.69486z" fill="#9966ff" stroke="none" stroke-width="NaN" stroke-linecap="butt"/><g stroke="none" stroke-width="0" stroke-linecap="butt"><path d="M232.29862,158.12981c0,1.74557 -1.2221,3.16064 -2.72964,3.16064c-1.50753,0 -2.72964,-1.41507 -2.72964,-3.16064c0,-1.74557 1.2221,-3.16063 2.72964,-3.16063c1.50753,0 2.72964,1.41506 2.72964,3.16063z" fill="#1426c5"/><path d="M230.57464,158.5608c0,0.71409 -0.51457,1.29298 -1.14932,1.29298c-0.63475,0 -1.14932,-0.57889 -1.14932,-1.29298c0,-0.71409 0.51457,-1.29299 1.14932,-1.29299c0.63475,0 1.14932,0.57889 1.14932,1.29299z" fill="#16badd"/></g><g stroke="none" stroke-width="0" stroke-linecap="butt"><path d="M243.33255,158.24519c0,1.74557 -1.2221,3.16064 -2.72964,3.16064c-1.50753,0 -2.72964,-1.41507 -2.72964,-3.16064c0,-1.74557 1.2221,-3.16063 2.72964,-3.16063c1.50753,0 2.72964,1.41506 2.72964,3.16063z" fill="#1426c5"/><path d="M241.60857,158.96352c0,0.71409 -0.51457,1.29298 -1.14932,1.29298c-0.63475,0 -1.14932,-0.57889 -1.14932,-1.29298c0,-0.71409 0.51457,-1.29299 1.14932,-1.29299c0.63475,0 1.14932,0.57889 1.14932,1.29299z" fill="#16badd"/></g><g fill="#4700d6" stroke="#4700d6" stroke-width="0.5"><path d="M234.77485,154.39775c-8.96578,-0.04093 -16.2284,-1.2962 -16.22152,-2.80372c0.00688,-1.50752 7.28066,-2.69643 16.24644,-2.6555c8.96578,0.04093 16.2284,1.2962 16.22152,2.80372c-0.00688,1.50752 -7.28066,2.69643 -16.24644,2.6555z" stroke-linecap="butt"/><path d="M226.63036,152.40507l11.06349,-19.20261l-2.90934,21.01143z" stroke-linecap="round"/><path d="M237.96942,133.28384l4.89346,17.92293l-7.44586,2.89431z" stroke-linecap="round"/><path d="M226.90593,152.48645l0.39956,-9.46911l11.10225,-10.20325z" stroke-linecap="round"/></g><path d="M237.88409,164.23491c-0.45404,0.99824 -2.57546,1.01 -4.73833,0.02625c-2.16286,-0.98375 -2.51475,-0.85126 -2.06071,-1.84951c0.25302,-0.55629 1.01161,0.11004 1.65901,0.04797c0.51434,-0.04931 1.36864,0.09959 2.27258,-0.04454c1.1511,-0.18354 2.17474,-2.0281 2.73616,-1.39103c0.583,0.66155 0.36259,2.70232 0.13129,3.21085z" fill="#ffffff" stroke="#000000" stroke-width="0.5" stroke-linecap="butt"/></g><path d="M235.83911,141.31207l1.14689,-4.20525l0.3823,4.46011h2.29377l-2.29377,1.01945l0.3823,2.03891l-1.27432,-2.4212l-1.27432,1.78404l0.12743,-1.78404l-1.01945,-1.65661z" fill="#e8ff00" stroke="#e8ff00" stroke-width="0.5" stroke-linecap="round"/><path d="M230.8897,145.88838l0.79625,-2.91957l0.26542,3.09651h1.59249l-1.59249,0.70777l0.26542,1.41555l-0.88472,-1.68096l-0.88472,1.2386l0.08847,-1.2386l-0.70777,-1.15013z" fill="#e8ff00" stroke="#e8ff00" stroke-width="0.5" stroke-linecap="round"/><path d="M239.4768,147.52205l0.46961,-1.7219l0.15654,1.82625h0.93922l-0.93922,0.41743l0.15654,0.83486l-0.52179,-0.99139l-0.52179,0.7305l0.05218,-0.7305l-0.41743,-0.67832z" fill="#e8ff00" stroke="#e8ff00" stroke-width="0.5" stroke-linecap="round"/></g></g></g></svg>