<svg version="1.1" xmlns="http://www.w3.org/2000/svg" xmlns:xlink="http://www.w3.org/1999/xlink" width="36.5583" height="63.5821" viewBox="0,0,36.5583,63.5821"><g transform="translate(-223.28561,-144.88243)"><g data-paper-data="{&quot;isPaintingLayer&quot;:true}" fill-rule="nonzero" stroke-linejoin="miter" stroke-miterlimit="10" stroke-dasharray="" stroke-dashoffset="0" style="mix-blend-mode: normal"><g><path d="M245.22848,183.09631c0,14.01049 -4.05222,25.36822 -9.0509,25.36822c-4.99867,0 -9.0509,-11.35773 -9.0509,-25.36822c0,-1.38438 4.91852,-4.71844 4.29149,-6.49504c-0.96378,-2.73073 -7.59066,-3.96495 -7.31174,-5.80773c1.37611,-9.09172 8.32557,-13.06544 12.07115,-13.06544c3.96737,0 9.92451,4.21726 11.14668,14.1743c0.1661,1.3532 -6.73559,2.75993 -7.32735,4.97197c-0.54012,2.01899 5.23157,4.8426 5.23157,6.22195z" fill="#9966ff" stroke="none" stroke-width="NaN" stroke-linecap="butt"/><path d="M233.44794,164.67415c0,1.62227 -1.2221,2.93738 -2.72964,2.93738c-1.50753,0 -2.72964,-1.31511 -2.72964,-2.93738c0,-1.62227 1.2221,-2.93737 2.72964,-2.93737c1.50753,0 2.72964,1.3151 2.72964,2.93737z" fill="#1426c5" stroke="none" stroke-width="0" stroke-linecap="butt"/><path d="M230.51079,164.50004c0,0.77426 -0.5503,1.40193 -1.22913,1.40193c-0.67883,0 -1.22913,-0.62767 -1.22913,-1.40193c0,-0.77426 0.5503,-1.40194 1.22913,-1.40194c0.67883,0 1.22913,0.62767 1.22913,1.40194z" fill="#16badd" stroke="none" stroke-width="0" stroke-linecap="butt"/><path d="M237.66211,163.07074c-8.31128,-3.36292 -14.6222,-7.14168 -14.09582,-8.44008c0.52637,-1.29841 7.69071,0.3752 16.002,3.73812c8.31128,3.36292 14.6222,7.14168 14.09582,8.44008c-0.52637,1.29841 -7.69071,-0.3752 -16.002,-3.73812z" fill="#4700d6" stroke="#4700d6" stroke-width="0.5" stroke-linecap="butt"/><path d="M230.78667,158.32831l16.89679,-12.46538l-9.94896,17.05273z" fill="#4700d6" stroke="#4700d6" stroke-width="0.5" stroke-linecap="round"/><path d="M247.91127,146.03544l-1.63817,17.28336l-7.91237,-0.26575z" fill="#4700d6" stroke="#4700d6" stroke-width="0.5" stroke-linecap="round"/><path d="M231.01449,158.50081l4.81146,-6.31631l12.65437,-6.39177z" fill="#4700d6" stroke="#4700d6" stroke-width="0.5" stroke-linecap="round"/><path d="M232.13749,171.78465c-0.45404,0.92773 -2.57546,0.93866 -4.73833,0.0244c-2.16286,-0.91426 -2.51475,-0.79113 -2.06071,-1.71887c0.25302,-0.517 1.01161,0.10227 1.65901,0.04458c0.51434,-0.04583 1.36864,0.09256 2.27258,-0.04139c1.1511,-0.17058 2.17474,-1.88484 2.73616,-1.29277c0.583,0.61482 0.36259,2.51144 0.13129,2.98404z" fill="#ffffff" stroke="#000000" stroke-width="0.5" stroke-linecap="butt"/><path d="M243.16397,152.17301l2.51548,-3.2034l-1.18342,3.99089l2.12994,0.85132l-2.48157,0.02845l-0.34828,1.90144l-0.34816,-2.56241l-1.79867,1.06664l0.73369,-1.4923l-0.37523,-1.80799z" fill="#e8ff00" stroke="#e8ff00" stroke-width="0.5" stroke-linecap="round"/><path d="M236.98957,154.28534l1.74642,-2.22402l-0.82161,2.77074l1.47875,0.59104l-1.72287,0.01975l-0.2418,1.32011l-0.24172,-1.779l-1.24876,0.74053l0.50938,-1.03606l-0.26051,-1.25523z" fill="#e8ff00" stroke="#e8ff00" stroke-width="0.5" stroke-linecap="round"/><path d="M244.39984,158.88223l1.03,-1.31168l-0.48457,1.63412l0.87214,0.34859l-1.01612,0.01165l-0.14261,0.77857l-0.14256,-1.04921l-0.73649,0.43675l0.30042,-0.61104l-0.15364,-0.74031z" fill="#e8ff00" stroke="#e8ff00" stroke-width="0.5" stroke-linecap="round"/><path d="M232.96727,189.16734c0.17827,-2.79756 -0.66845,-7.50112 0.08471,-10.65242c0.14065,-0.58848 5.34395,-0.57353 5.28662,-1.14063c-0.06535,-0.64638 -5.29345,-1.33582 -5.31846,-1.93495c-0.09077,-2.17498 0.14332,-3.98203 1.13062,-5.01078c1.56018,-1.62569 4.29889,0.70295 6.15096,0.82097c2.16417,0.13791 7.32277,-3.431 8.75915,-1.04746c0.70942,1.17722 -0.5017,5.50818 -0.7582,7.81623c-0.08777,0.78971 -0.70639,3.06672 0.13892,3.27279c1.17866,0.28735 2.04991,5.70588 2.6863,6.30988c0.15594,3.29156 1.8746,6.59333 2.71951,9.23801c0.576,3.7964 3.63571,5.21765 5.51324,8.45021c2.36158,4.06598 -13.91328,1.12931 -16.9714,0.93444c-2.44788,-0.15598 -13.82223,2.7272 -12.67709,-0.33018c1.25087,-3.33966 2.93792,-11.74792 3.25514,-16.72611z" fill="#4700d6" stroke="#4700d6" stroke-width="0.5" stroke-linecap="butt"/></g></g></g></svg>