<svg version="1.1" xmlns="http://www.w3.org/2000/svg" xmlns:xlink="http://www.w3.org/1999/xlink" width="36.55831" height="63.5821" viewBox="0,0,36.55831,63.5821"><g transform="translate(-223.28561,-144.88243)"><g data-paper-data="{&quot;isPaintingLayer&quot;:true}" fill-rule="nonzero" stroke-linejoin="miter" stroke-miterlimit="10" stroke-dasharray="" stroke-dashoffset="0" style="mix-blend-mode: normal"><g data-paper-data="{&quot;index&quot;:null}"><path d="M237.90105,183.09633c0,-1.37935 5.77169,-4.20296 5.23157,-6.22195c-0.59176,-2.21204 -7.49345,-3.61877 -7.32735,-4.97197c1.22217,-9.95704 7.17931,-14.1743 11.14668,-14.1743c3.74558,0 10.69504,3.97372 12.07115,13.06544c0.27892,1.84278 -6.34796,3.077 -7.31174,5.80773c-0.62703,1.7766 4.29149,5.11066 4.29149,6.49504c0,14.01049 -4.05223,25.36822 -9.0509,25.36822c-4.99868,0 -9.0509,-11.35773 -9.0509,-25.36822z" fill="#9966ff" stroke="none" stroke-width="NaN" stroke-linecap="butt"/><path d="M252.41123,161.73678c1.50754,0 2.72964,1.3151 2.72964,2.93737c0,1.62227 -1.22211,2.93738 -2.72964,2.93738c-1.50754,0 -2.72964,-1.31511 -2.72964,-2.93738c0,-1.62227 1.22211,-2.93737 2.72964,-2.93737z" fill="#1426c5" stroke="none" stroke-width="0" stroke-linecap="butt"/><path d="M253.84787,163.09811c0.67883,0 1.22914,0.62768 1.22914,1.40194c0,0.77426 -0.55031,1.40192 -1.22914,1.40192c-0.67883,0 -1.22913,-0.62766 -1.22913,-1.40192c0,-0.77427 0.5503,-1.40194 1.22913,-1.40194z" fill="#16badd" stroke="none" stroke-width="0" stroke-linecap="butt"/><path d="M229.46542,166.80886c-0.52638,-1.29841 5.78454,-5.07717 14.09582,-8.44009c8.31128,-3.36292 15.47562,-5.03653 16.002,-3.73812c0.52638,1.29841 -5.78454,5.07717 -14.09583,8.44009c-8.31128,3.36292 -15.47562,5.03653 -16.00199,3.73812z" fill="#4700d6" stroke="#4700d6" stroke-width="0.5" stroke-linecap="butt"/><path d="M245.39503,162.91565l-9.94896,-17.05272l16.89679,12.46538z" fill="#4700d6" stroke="#4700d6" stroke-width="0.5" stroke-linecap="round"/><path d="M244.76879,163.05306l-7.91237,0.26575l-1.63816,-17.28337z" fill="#4700d6" stroke="#4700d6" stroke-width="0.5" stroke-linecap="round"/><path d="M234.64921,145.79272l12.65438,6.39178l4.81146,6.31631z" fill="#4700d6" stroke="#4700d6" stroke-width="0.5" stroke-linecap="round"/><path d="M250.99204,171.78464c-0.2313,-0.4726 -0.45171,-2.36922 0.13129,-2.98404c0.56142,-0.59207 1.58506,1.12219 2.73616,1.29277c0.90394,0.13395 1.75824,-0.00444 2.27258,0.04139c0.6474,0.05769 1.40599,-0.56158 1.65901,-0.04458c0.45404,0.92774 0.10215,0.80461 -2.06071,1.71887c-2.16287,0.91426 -4.28429,0.90333 -4.73833,-0.0244z" fill="#ffffff" stroke="#000000" stroke-width="0.5" stroke-linecap="butt"/><path d="M241.12179,150.94565l-0.37523,1.80799l0.73369,1.4923l-1.79866,-1.06664l-0.34817,2.56241l-0.34828,-1.90144l-2.48158,-0.02845l2.12994,-0.85131l-1.18342,-3.99089l2.51548,3.2034z" fill="#e8ff00" stroke="#e8ff00" stroke-width="0.5" stroke-linecap="round"/><path d="M246.94268,153.43321l-0.2605,1.25523l0.50938,1.03606l-1.24876,-0.74053l-0.24172,1.779l-0.2418,-1.32011l-1.72288,-0.01975l1.47875,-0.59105l-0.82161,-2.77074l1.74642,2.22402z" fill="#e8ff00" stroke="#e8ff00" stroke-width="0.5" stroke-linecap="round"/><path d="M239.20312,158.37966l-0.15364,0.74031l0.30042,0.61104l-0.73649,-0.43675l-0.14256,1.04921l-0.14261,-0.77857l-1.01612,-0.01164l0.87213,-0.34859l-0.48457,-1.63412l1.03,1.31167z" fill="#e8ff00" stroke="#e8ff00" stroke-width="0.5" stroke-linecap="round"/><path d="M250.16224,189.16733c0.31723,4.97819 2.00427,13.38645 3.25514,16.72611c1.14514,3.05738 -10.22922,0.17419 -12.6771,0.33018c-3.05811,0.19487 -19.33298,3.13154 -16.97139,-0.93444c1.87752,-3.23256 4.93724,-4.65381 5.51324,-8.45022c0.84491,-2.64469 2.56358,-5.94645 2.71952,-9.23801c0.63638,-0.60401 1.50763,-6.02254 2.6863,-6.30988c0.8453,-0.20607 0.22669,-2.48308 0.13891,-3.27279c-0.25651,-2.30805 -1.46763,-6.63901 -0.7582,-7.81623c1.43638,-2.38354 6.59498,1.18537 8.75915,1.04746c1.85208,-0.11802 4.59078,-2.44666 6.15096,-0.82097c0.9873,1.02875 1.22139,2.8358 1.13062,5.01078c-0.025,0.59912 -5.25311,1.28856 -5.31845,1.93494c-0.05733,0.5671 5.14597,0.55216 5.28662,1.14063c0.75315,3.15131 -0.09356,7.85487 0.0847,10.65243z" fill="#4700d6" stroke="#4700d6" stroke-width="0.5" stroke-linecap="butt"/></g></g></g></svg>