<svg version="1.1" xmlns="http://www.w3.org/2000/svg" xmlns:xlink="http://www.w3.org/1999/xlink" width="34.13347" height="68.96665" viewBox="0,0,34.13347,68.96665"><g transform="translate(-218.30333,-133.24794)"><g data-paper-data="{&quot;isPaintingLayer&quot;:true}" fill-rule="nonzero" stroke-linejoin="miter" stroke-miterlimit="10" stroke-dasharray="" stroke-dashoffset="0" style="mix-blend-mode: normal"><path d="M244.36649,174.63182c0,14.69953 -4.05222,26.61584 -9.0509,26.61584c-4.99867,0 -9.0509,-11.91631 -9.0509,-26.61584c0,-1.45246 4.91852,-4.95049 4.29149,-6.81447c-0.96378,-2.86503 -7.59066,-4.15995 -7.31174,-6.09335c1.37611,-9.53886 8.32557,-13.70801 12.07115,-13.70801c3.96737,0 9.92451,4.42467 11.14668,14.8714c0.1661,1.41975 -6.73559,2.89566 -7.32735,5.21649c-0.54012,2.11829 5.23157,5.08076 5.23157,6.52795z" fill="#9966ff" stroke="none" stroke-width="NaN" stroke-linecap="butt"/><path d="M224.5407,182.89672c0,-2.94109 -1.14412,-7.8095 -0.59289,-11.15934c0.10294,-0.62556 5.29666,-0.95707 5.20338,-1.54703c-0.10632,-0.67244 -5.36769,-1.0455 -5.43074,-1.67114c-0.2289,-2.27128 -0.1102,-4.17897 0.80968,-5.32201c1.45364,-1.80629 8.6423,0.78828 10.49813,0.78828c2.16856,0 8.18709,-3.61258 9.77214,-1.21271c0.78285,1.18528 0.66158,4.09515 0.55237,6.52893c-0.03737,0.83273 -6.4836,2.36563 -5.6269,2.525c1.19455,0.22223 4.96607,-0.17484 5.63958,0.41513c2.55871,2.2413 1.96602,9.16612 2.449,11.49542c0.81626,3.93662 2.01214,11.0196 4.09143,14.279c2.61537,4.09975 -13.8133,2.11076 -16.87762,2.11076c-2.45284,0 -13.62082,3.77776 -12.67243,0.50011c1.03596,-3.58028 2.18488,-12.49676 2.18488,-17.73037z" fill="#4700d6" stroke="#4700d6" stroke-width="0.5" stroke-linecap="butt"/><path d="M234.77485,155.58363c-8.96578,-0.03991 -16.2284,-1.26388 -16.22152,-2.73382c0.00688,-1.46994 7.28066,-2.62921 16.24644,-2.5893c8.96578,0.03991 16.2284,1.26388 16.22152,2.73382c-0.00688,1.46994 -7.28066,2.62921 -16.24644,2.5893z" fill="#4700d6" stroke="#4700d6" stroke-width="0.5" stroke-linecap="butt"/><path d="M234.70873,155.40435l-2.90934,-20.4876l11.06349,18.72387z" data-paper-data="{&quot;index&quot;:null}" fill="#4700d6" stroke="#4700d6" stroke-width="0.5" stroke-linecap="round"/><path d="M234.07622,155.29435l-7.44586,-2.82215l4.89346,-17.4761z" data-paper-data="{&quot;index&quot;:null}" fill="#4700d6" stroke="#4700d6" stroke-width="0.5" stroke-linecap="round"/><path d="M231.0855,134.53807l11.10225,9.94887l0.39956,9.23304z" data-paper-data="{&quot;index&quot;:null}" fill="#4700d6" stroke="#4700d6" stroke-width="0.5" stroke-linecap="round"/><path d="M235.1833,142.07866l-1.01945,1.61531l0.12743,1.73956l-1.27432,-1.73956l-1.27432,2.36084l0.3823,-1.98808l-2.29377,-0.99403h2.29377l0.3823,-4.34892l1.14689,4.10041z" data-paper-data="{&quot;index&quot;:null}" fill="#e8ff00" stroke="#e8ff00" stroke-width="0.5" stroke-linecap="round"/><path d="M230.8897,147.2864l0.79625,-2.84678l0.26542,3.01931h1.59249l-1.59249,0.69012l0.26542,1.38026l-0.88472,-1.63905l-0.88472,1.20772l0.08847,-1.20772l-0.70777,-1.12146z" fill="#e8ff00" stroke="#e8ff00" stroke-width="0.5" stroke-linecap="round"/><path d="M239.4768,148.87934l0.46961,-1.67897l0.15654,1.78072h0.93922l-0.93922,0.40702l0.15654,0.81405l-0.52179,-0.96667l-0.52179,0.71229l0.05218,-0.71229l-0.41743,-0.66141z" fill="#e8ff00" stroke="#e8ff00" stroke-width="0.5" stroke-linecap="round"/></g></g></svg>