<svg version="1.1" xmlns="http://www.w3.org/2000/svg" xmlns:xlink="http://www.w3.org/1999/xlink" width="34.13347" height="65.77173" viewBox="0,0,34.13347,65.77173"><g transform="translate(-218.30332,-136.44287)"><g data-paper-data="{&quot;isPaintingLayer&quot;:true}" fill-rule="nonzero" stroke-linejoin="miter" stroke-miterlimit="10" stroke-dasharray="" stroke-dashoffset="0" style="mix-blend-mode: normal"><g><g><path d="M224.5407,183.79054c0,-2.80323 -1.14412,-7.44343 -0.59289,-10.63625c0.10294,-0.59623 5.29666,-0.91221 5.20338,-1.47452c-0.10632,-0.64092 -5.36769,-0.99649 -5.43074,-1.59281c-0.2289,-2.16481 -0.1102,-3.98308 0.80968,-5.07254c1.45364,-1.72162 8.6423,0.75132 10.49813,0.75132c2.16856,0 8.18709,-3.44324 9.77214,-1.15587c0.78285,1.12972 0.66158,3.90319 0.55237,6.22288c-0.03737,0.79369 -6.4836,2.25474 -5.6269,2.40664c1.19455,0.21181 4.96607,-0.16664 5.63958,0.39567c2.55871,2.13624 1.96602,8.73645 2.449,10.95657c0.81626,3.75209 2.01214,10.50305 4.09143,13.60967c2.61537,3.90757 -13.8133,2.01182 -16.87762,2.01182c-2.45284,0 -13.62082,3.60068 -12.67243,0.47667c1.03596,-3.41245 2.18488,-11.91097 2.18488,-16.89926z" fill="#4700d6" stroke="#4700d6" stroke-width="0.5" stroke-linecap="butt"/><path d="M244.36649,175.91306c0,14.01049 -4.05222,25.36822 -9.0509,25.36822c-4.99867,0 -9.0509,-11.35773 -9.0509,-25.36822c0,-1.38438 4.91852,-4.71844 4.29149,-6.49504c-0.96378,-2.73073 -7.59066,-3.96495 -7.31174,-5.80773c1.37611,-9.09172 8.32557,-13.06544 12.07115,-13.06544c3.96737,0 9.92451,4.21726 11.14668,14.1743c0.1661,1.3532 -6.73559,2.75993 -7.32735,4.97197c-0.54012,2.01899 5.23157,4.8426 5.23157,6.22195z" fill="#9966ff" stroke="none" stroke-width="NaN" stroke-linecap="butt"/><g stroke="none" stroke-width="0" stroke-linecap="butt"><path d="M232.29862,161.22619c0,1.62227 -1.2221,2.93738 -2.72964,2.93738c-1.50753,0 -2.72964,-1.31511 -2.72964,-2.93738c0,-1.62227 1.2221,-2.93737 2.72964,-2.93737c1.50753,0 2.72964,1.3151 2.72964,2.93737z" fill="#1426c5"/><path d="M230.57464,161.62674c0,0.66365 -0.51457,1.20165 -1.14932,1.20165c-0.63475,0 -1.14932,-0.538 -1.14932,-1.20165c0,-0.66365 0.51457,-1.20166 1.14932,-1.20166c0.63475,0 1.14932,0.538 1.14932,1.20166z" fill="#16badd"/></g><g stroke="none" stroke-width="0" stroke-linecap="butt"><path d="M243.33255,161.33342c0,1.62227 -1.2221,2.93738 -2.72964,2.93738c-1.50753,0 -2.72964,-1.31511 -2.72964,-2.93738c0,-1.62227 1.2221,-2.93737 2.72964,-2.93737c1.50753,0 2.72964,1.3151 2.72964,2.93737z" fill="#1426c5"/><path d="M241.60857,162.00101c0,0.66365 -0.51457,1.20165 -1.14932,1.20165c-0.63475,0 -1.14932,-0.538 -1.14932,-1.20165c0,-0.66365 0.51457,-1.20166 1.14932,-1.20166c0.63475,0 1.14932,0.538 1.14932,1.20166z" fill="#16badd"/></g><g fill="#4700d6" stroke="#4700d6" stroke-width="0.5"><path d="M234.77485,157.75775c-8.96578,-0.03804 -16.2284,-1.20464 -16.22152,-2.60567c0.00688,-1.40103 7.28066,-2.50596 16.24644,-2.46792c8.96578,0.03804 16.2284,1.20464 16.22152,2.60567c-0.00688,1.40103 -7.28066,2.50596 -16.24644,2.46792z" stroke-linecap="butt"/><path d="M226.63036,155.90583l11.06349,-17.84619l-2.90934,19.52724z" stroke-linecap="round"/><path d="M237.96942,138.13528l4.89346,16.6569l-7.44586,2.68986z" stroke-linecap="round"/><path d="M226.90593,155.98146l0.39956,-8.80024l11.10225,-9.48252z" stroke-linecap="round"/></g><path d="M237.88409,166.90004c-0.45404,0.92773 -2.57546,0.93866 -4.73833,0.0244c-2.16286,-0.91426 -2.51475,-0.79113 -2.06071,-1.71887c0.25302,-0.517 1.01161,0.10227 1.65901,0.04458c0.51434,-0.04583 1.36864,0.09256 2.27258,-0.04139c1.1511,-0.17058 2.17474,-1.88484 2.73616,-1.29277c0.583,0.61482 0.36259,2.51144 0.13129,2.98404z" fill="#ffffff" stroke="#000000" stroke-width="0.5" stroke-linecap="butt"/></g><path d="M235.83911,145.59641l1.14689,-3.9082l0.3823,4.14506h2.29377l-2.29377,0.94744l0.3823,1.89489l-1.27432,-2.25017l-1.27432,1.65802l0.12743,-1.65802l-1.01945,-1.53959z" fill="#e8ff00" stroke="#e8ff00" stroke-width="0.5" stroke-linecap="round"/><path d="M230.8897,149.84946l0.79625,-2.71334l0.26542,2.87778h1.59249l-1.59249,0.65777l0.26542,1.31556l-0.88472,-1.56222l-0.88472,1.15111l0.08847,-1.15111l-0.70777,-1.06889z" fill="#e8ff00" stroke="#e8ff00" stroke-width="0.5" stroke-linecap="round"/><path d="M239.4768,151.36774l0.46961,-1.60027l0.15654,1.69725h0.93922l-0.93922,0.38794l0.15654,0.77589l-0.52179,-0.92136l-0.52179,0.6789l0.05218,-0.6789l-0.41743,-0.63041z" fill="#e8ff00" stroke="#e8ff00" stroke-width="0.5" stroke-linecap="round"/></g></g></g></svg>