<svg version="1.1" xmlns="http://www.w3.org/2000/svg" xmlns:xlink="http://www.w3.org/1999/xlink" width="34.13347" height="70.7096" viewBox="0,0,34.13347,70.7096"><g transform="translate(-218.30333,-131.50499)"><g data-paper-data="{&quot;isPaintingLayer&quot;:true}" fill-rule="nonzero" stroke-linejoin="miter" stroke-miterlimit="10" stroke-dasharray="" stroke-dashoffset="0" style="mix-blend-mode: normal"><path d="M244.36649,173.93297c0,15.07537 -4.05222,27.29636 -9.0509,27.29636c-4.99867,0 -9.0509,-12.22099 -9.0509,-27.29636c0,-1.4896 4.91852,-5.07707 4.29149,-6.9887c-0.96378,-2.93828 -7.59066,-4.26631 -7.31174,-6.24915c1.37611,-9.78275 8.32557,-14.0585 12.07115,-14.0585c3.96737,0 9.92451,4.5378 11.14668,15.25164c0.1661,1.45605 -6.73559,2.9697 -7.32735,5.34987c-0.54012,2.17245 5.23157,5.21067 5.23157,6.69486z" fill="#9966ff" stroke="none" stroke-width="NaN" stroke-linecap="butt"/><path d="M224.5407,182.40919c0,-3.01629 -1.14412,-8.00918 -0.59289,-11.44467c0.10294,-0.64155 5.29666,-0.98154 5.20338,-1.58659c-0.10632,-0.68963 -5.36769,-1.07223 -5.43074,-1.71387c-0.2289,-2.32935 -0.1102,-4.28582 0.80968,-5.45808c1.45364,-1.85247 8.6423,0.80843 10.49813,0.80843c2.16856,0 8.18709,-3.70495 9.77214,-1.24372c0.78285,1.21559 0.66158,4.19986 0.55237,6.69586c-0.03737,0.85402 -6.4836,2.42611 -5.6269,2.58956c1.19455,0.22791 4.96607,-0.17931 5.63958,0.42574c2.55871,2.29861 1.96602,9.40048 2.449,11.78934c0.81626,4.03727 2.01214,11.30135 4.09143,14.64409c2.61537,4.20457 -13.8133,2.16473 -16.87762,2.16473c-2.45284,0 -13.62082,3.87435 -12.67243,0.5129c1.03596,-3.67182 2.18488,-12.81628 2.18488,-18.18371z" fill="#4700d6" stroke="#4700d6" stroke-width="0.5" stroke-linecap="butt"/><path d="M234.77485,154.39774c-8.96578,-0.04093 -16.2284,-1.2962 -16.22152,-2.80372c0.00688,-1.50752 7.28066,-2.69643 16.24644,-2.6555c8.96578,0.04093 16.2284,1.2962 16.22152,2.80372c-0.00688,1.50752 -7.28066,2.69643 -16.24644,2.6555z" fill="#4700d6" stroke="#4700d6" stroke-width="0.5" stroke-linecap="butt"/><path d="M234.70873,154.21389l-2.90934,-21.01143l11.06349,19.20261z" data-paper-data="{&quot;index&quot;:null}" fill="#4700d6" stroke="#4700d6" stroke-width="0.5" stroke-linecap="round"/><path d="M234.07622,154.10108l-7.44586,-2.89431l4.89346,-17.92293z" data-paper-data="{&quot;index&quot;:null}" fill="#4700d6" stroke="#4700d6" stroke-width="0.5" stroke-linecap="round"/><path d="M231.0855,132.81409l11.10225,10.20325l0.39956,9.46911z" data-paper-data="{&quot;index&quot;:null}" fill="#4700d6" stroke="#4700d6" stroke-width="0.5" stroke-linecap="round"/><path d="M235.1833,140.54748l-1.01945,1.65661l0.12743,1.78404l-1.27432,-1.78404l-1.27432,2.4212l0.3823,-2.03891l-2.29377,-1.01945h2.29377l0.3823,-4.46011l1.14689,4.20525z" data-paper-data="{&quot;index&quot;:null}" fill="#e8ff00" stroke="#e8ff00" stroke-width="0.5" stroke-linecap="round"/><path d="M230.8897,145.88838l0.79625,-2.91957l0.26542,3.09651h1.59249l-1.59249,0.70777l0.26542,1.41555l-0.88472,-1.68096l-0.88472,1.2386l0.08847,-1.2386l-0.70777,-1.15013z" fill="#e8ff00" stroke="#e8ff00" stroke-width="0.5" stroke-linecap="round"/><path d="M239.4768,147.52205l0.46961,-1.7219l0.15654,1.82625h0.93922l-0.93922,0.41743l0.15654,0.83486l-0.52179,-0.99139l-0.52179,0.7305l0.05218,-0.7305l-0.41743,-0.67832z" fill="#e8ff00" stroke="#e8ff00" stroke-width="0.5" stroke-linecap="round"/></g></g></svg>